# AST/ASF file generated using VICON BodyLanguage
# -----------------------------------------------
:version 1.10
:name VICON
:units
  mass 1.0
  length 0.45
  angle deg
:documentation
   .ast/.asf automatically generated from VICON data using
   VICON BodyBuilder and BodyLanguage model FoxedUp or BRILLIANT.MOD
:root
   order TX TY TZ RX RY RZ
   axis XYZ
   position 0 0 0  
   orientation 0 0 0 
:bonedata
  begin
     id 1 
     name lhipjoint
     direction 0.710188 -0.616876 0.339259 
     length 2.5669 
     axis 0 0 0  XYZ
  end
  begin
     id 2 
     name lfemur
     direction 0.34202 -0.939693 0  
     length 7.12796  
     axis 0 0 20  XYZ
    dof rx ry rz
    limits (-160.0 20.0)
           (-70.0 70.0)
           (-60.0 70.0)
  end
  begin
     id 3 
     name ltibia
     direction 0.34202 -0.939693 0   
     length 7.58108   
     axis 0 0 20   XYZ
    dof rx
    limits (-10.0 170.0)
  end
  begin
     id 4 
     name lfoot
     direction 0.0669471 -0.183936 0.980656   
     length 2.17365   
     axis -90 7.62852e-016 20   XYZ
    dof rx rz
    limits (-45.0 90.0)
           (-70.0 20.0)
  end
  begin
     id 5 
     name ltoes
     direction 1.53508e-011 -4.21705e-011 1   
     length 1.09427   
     axis -90 7.62852e-016 20   XYZ
    dof rx
    limits (-90.0 20.0)
  end
  begin
     id 6 
     name rhipjoint
     direction -0.700191 -0.625589 0.34405   
     length 2.53115  
     axis 0 0 0  XYZ 
  end
  begin
     id 7 
     name rfemur
     direction -0.34202 -0.939693 0   
     length 7.33006   
     axis 0 0 -20   XYZ
    dof rx ry rz
    limits (-160.0 20.0)
           (-70.0 70.0)
           (-70.0 60.0)
  end
  begin
     id 8 
     name rtibia
     direction -0.34202 -0.939693 0   
     length 7.64926   
     axis 0 0 -20   XYZ
    dof rx
    limits (-10.0 170.0)
 end
 begin
     id 9 
     name rfoot
     direction -0.0688927 -0.189281 0.979503   
     length 2.20493  
     axis -90 -7.62852e-016 -20   XYZ
    dof rx rz
    limits (-45.0 90.0)
           (-20.0 70.0)
  end
  begin
     id 10 
     name rtoes
     direction -1.53567e-011 -4.21933e-011 1   
     length 1.10919   
     axis -90 -7.62852e-016 -20   XYZ
    dof rx
    limits (-90.0 20.0)
  end
  begin
     id 11 
     name lowerback
     direction -0.0167868 0.989873 -0.140959   
     length 2.14596   
     axis 0 0 0   XYZ
    dof rx ry rz
    limits (-20.0 45.0)
           (-30.0 30.0)
           (-30.0 30.0)
  end
  begin
     id 12 
     name upperback
     direction 0.0129109 0.998033 0.0613525   
     length 2.10457   
     axis 0 0 0   XYZ
    dof rx ry rz
    limits (-20.0 45.0)
           (-30.0 30.0)
           (-30.0 30.0)
  end
  begin
     id 13 
     name thorax
     direction 0.0177047 0.991119 0.131797   
     length 2.17652   
     axis 0 0 0   XYZ
    dof rx ry rz
    limits (-20.0 45.0)
           (-30.0 30.0)
           (-30.0 30.0)
  end
  begin
     id 14 
     name lowerneck
     direction -0.0336893 0.997548 0.0613464   
     length 1.8912   
     axis 0 0 0   XYZ
    dof rx ry rz
    limits (-20.0 45.0)
           (-30.0 30.0)
           (-30.0 30.0)
  end
  begin
     id 15 
     name upperneck
     direction 0.0435909 0.997179 -0.0611028   
     length 1.8829   
     axis 0 0 0   XYZ
    dof rx ry rz
    limits (-20.0 45.0)
           (-30.0 30.0)
           (-30.0 30.0)
  end
  begin
     id 16
     name head
     direction 0.0175076 0.999444 -0.0283782  
     length 1.93197  
     axis 0 0 0   XYZ
    dof rx ry rz
    limits (-20.0 45.0)
           (-30.0 30.0)
           (-30.0 30.0)
  end
  begin
     id 17 
     name lclavicle
     direction 0.919164 0.389875 0.0559876  
     length 3.60004  
     axis 0 0 0   XYZ
    dof ry rz
    limits (-20.0 10.0)
           (0.0 20.0)
  end
  begin
     id 18 
     name lhumerus
     direction 1 -4.48958e-011 6.89191e-027   
     length 5.43301   
     axis 180 -30 -90   XYZ
    dof rx ry rz
    limits (-60.0 90.0)
           (-90.0 90.0)
           (-90.0 90.0)
  end
  begin
     id 19
     name lradius
     direction 1 -4.4897e-011 3.24727e-027   
     length 3.15936   
     axis 180 -30 -90   XYZ
    dof rx
    limits (-10.0 170.0)
  end
  begin
     id 20
     name lwrist
     direction 1 -4.4897e-011 9.00228e-027   
     length 1.57968   
     axis -6.29373e-015 90 90   XYZ
    dof ry
    limits (-180.0 0.0)
 end
  begin
     id 21 
     name lhand
     direction 1 -4.48968e-011 1.80042e-026   
     length 0.712827   
     axis -1.14882e-014 90 90   XYZ
    dof rx rz
    limits (-90.0 90.0)
           (-45.0 45.0)
  end
  begin
     id 22 
     name lfingers
     direction 1 -4.49019e-011 3.60267e-026   
     length 0.574699   
     axis -2.29769e-014 90 90   XYZ
    dof rx
    limits (0.0 90.0)
  end
  begin
     id 23
     name lthumb
     direction 0.707107 -6.3498e-011 0.707107   
     length 0.825157   
     axis -90 45 5.37419e-014   XYZ
    dof rx rz
    limits (-45.0 45.0)
           (-45.0 45.0)
  end
  begin
     id 24 
     name rclavicle
     direction -0.890334 0.455305 -0.00132111   
     length 3.51494  
     axis 0 0 0   XYZ 
    dof ry rz
    limits (-10.0 20.0)
           (-20.0 0.0)
  end
  begin
     id 25 
     name rhumerus
     direction -1 -4.48967e-011 5.07175e-028  
     length 5.34194   
     axis 180 30 90   XYZ
    dof rx ry rz
    limits (-90.0 60.0)
           (-90.0 90.0)
           (-90.0 90.0)
  end
  begin
     id 26 
     name rradius
     direction -1 -4.48955e-011 3.30467e-027   
     length 3.19351   
     axis 180 30 90   XYZ
    dof rx
    limits (-10.0 170.0)
  end
  begin
     id 27 
     name rwrist
     direction -1 -4.48968e-011 9.00208e-027   
     length 1.59676   
     axis -6.29373e-015 -90 -90   XYZ
    dof ry
    limits (-180.0 0.0)
  end
  begin
     id 28
     name rhand
     direction -1 -4.49e-011 1.80099e-026   
     length 0.743862   
     axis -1.14882e-014 -90 -90   XYZ
    dof rx rz
    limits (-90.0 90.0)
           (-45.0 45.0)
  end
  begin
     id 29
     name rfingers
     direction -1 -4.49009e-011 3.6023e-026   
     length 0.599721   
     axis -2.29769e-014 -90 -90   XYZ
    dof rx
    limits (0.0 90.0)
  end
  begin
     id 30
     name rthumb
     direction -0.707107 -6.35025e-011 0.707107   
     length 0.861083   
     axis -90 -45 -5.37419e-014   XYZ
    dof rx rz
    limits (-45.0 45.0)
           (-45.0 45.0)
  end
:hierarchy
  begin
    root lhipjoint rhipjoint lowerback
    lhipjoint lfemur
    lfemur ltibia
    ltibia lfoot
    lfoot ltoes
    rhipjoint rfemur
    rfemur rtibia
    rtibia rfoot
    rfoot rtoes
    lowerback upperback
    upperback thorax
    thorax lowerneck lclavicle rclavicle
    lowerneck upperneck
    upperneck head
    lclavicle lhumerus
    lhumerus lradius
    lradius lwrist
    lwrist lhand lthumb
    lhand lfingers
    rclavicle rhumerus
    rhumerus rradius
    rradius rwrist
    rwrist rhand rthumb
    rhand rfingers
  end

#!OML:ASF H:\Martial Arts Walks\Project 1\Capture day 1\Session 1\male.ASF
:FULLY-SPECIFIED
:DEGREES
31
root -0.747564 11.588 11.3414 8.79884 1.62152 -1.85884
lowerback 18.6255 1.53648 -2.5067
upperback -3.63854 1.59864 1.00328
thorax -14.7822 1.00935 2.07105
lowerneck -8.43406 -3.39075 -5.88644
upperneck 6.75907 -4.33658 5.75048
head 3.64373 -2.02895 2.45821
rclavicle 4.5969e-015 5.76476e-015
rhumerus 39.1421 -2.66278 -63.7853
rradius 94.5905
rwrist 20.7947
rhand 1.19374 -14.0191
rfingers 7.12502
rthumb 26.7333 -42.1505
lclavicle 4.5969e-015 5.76476e-015
lhumerus 41.3723 -4.77853 87.5698
lradius 87.9982
lwrist -35.858
lhand -10.5756 2.08603
lfingers 7.12502
lthumb 15.4293 31.4902
rfemur -71.9195 -5.2772 20.8563
rtibia 107.263
rfoot -33.2086 -17.9366
rtoes -14.1454
lfemur -72.6387 10.9579 -18.2157
ltibia 106.478
lfoot -31.4707 16.9728
ltoes -14.4164
32
root -0.746908 11.5868 11.3403 8.81037 1.63064 -1.87352
lowerback 18.6402 1.53256 -2.49441
upperback -3.63744 1.59708 1.01088
thorax -14.7895 1.00808 2.07299
lowerneck -8.42238 -3.38756 -5.88261
upperneck 6.71824 -4.33077 5.73864
head 3.62875 -2.02684 2.45465
rclavicle -4.42917e-015 -1.18277e-014
rhumerus 39.1583 -2.6794 -63.7954
rradius 94.5703
rwrist 20.7867
rhand 1.17868 -14.013
rfingers 7.12502
rthumb 26.7188 -42.1466
lclavicle -4.42917e-015 -1.18277e-014
lhumerus 41.4022 -4.77177 87.5543
lradius 87.9966
lwrist -35.8747
lhand -10.5822 2.0738
lfingers 7.12502
lthumb 15.4229 31.4784
rfemur -71.94 -5.26391 20.8654
rtibia 107.268
rfoot -33.2164 -17.9443
rtoes -14.1028
lfemur -72.6708 10.9592 -18.2064
ltibia 106.491
lfoot -31.4697 16.9643
ltoes -14.4335
33
root -0.746338 11.5858 11.3393 8.8203 1.63798 -1.88817
lowerback 18.6542 1.53006 -2.4825
upperback -3.63552 1.59731 1.01823
thorax -14.7955 1.00761 2.07432
lowerneck -8.41172 -3.38457 -5.87622
upperneck 6.684 -4.32524 5.72131
head 3.61577 -2.02502 2.44894
rclavicle 2.02046e-014 5.36719e-015
rhumerus 39.1763 -2.69778 -63.8078
rradius 94.5473
rwrist 20.7861
rhand 1.15093 -14.0129
rfingers 7.12502
rthumb 26.6923 -42.1506
lclavicle 2.02046e-014 5.36719e-015
lhumerus 41.4309 -4.76835 87.54
lradius 87.9942
lwrist -35.8848
lhand -10.6034 2.07397
lfingers 7.12502
lthumb 15.4025 31.4802
rfemur -71.9577 -5.25073 20.8751
rtibia 107.273
rfoot -33.2306 -17.9455
rtoes -14.033
lfemur -72.6991 10.9651 -18.1972
ltibia 106.502
lfoot -31.4673 16.9581
ltoes -14.453
34
root -0.745967 11.5848 11.3383 8.82917 1.64322 -1.90075
lowerback 18.6666 1.52906 -2.4746
upperback -3.63247 1.59847 1.02435
thorax -14.7994 1.00781 2.07627
lowerneck -8.42501 -3.38215 -5.86079
upperneck 6.67671 -4.32055 5.69509
head 3.61454 -2.02335 2.43855
rclavicle 1.18991e-014 1.58779e-014
rhumerus 39.1946 -2.71943 -63.8255
rradius 94.5234
rwrist 20.8051
rhand 1.12246 -14.0149
rfingers 7.12502
rthumb 26.6651 -42.1567
lclavicle 1.18991e-014 1.58779e-014
lhumerus 41.46 -4.76821 87.5255
lradius 87.9931
lwrist -35.8764
lhand -10.6102 2.10584
lfingers 7.12502
lthumb 15.396 31.5126
rfemur -71.9751 -5.23813 20.8842
rtibia 107.278
rfoot -33.2482 -17.9407
rtoes -13.9531
lfemur -72.7255 10.977 -18.1903
ltibia 106.513
lfoot -31.465 16.9507
ltoes -14.4795
35
root -0.745797 11.5837 11.3375 8.83685 1.64275 -1.90976
lowerback 18.6746 1.53069 -2.47374
upperback -3.62762 1.60129 1.02873
thorax -14.7988 1.00921 2.0798
lowerneck -8.4344 -3.37914 -5.84737
upperneck 6.66991 -4.3156 5.67499
head 3.61299 -2.02136 2.43043
rclavicle -5.00378e-015 -7.8023e-015
rhumerus 39.2131 -2.74106 -63.8479
rradius 94.5029
rwrist 20.8326
rhand 1.09237 -14.0247
rfingers 7.12502
rthumb 26.6363 -42.1709
lclavicle -5.00378e-015 -7.8023e-015
lhumerus 41.4881 -4.77002 87.5114
lradius 87.9896
lwrist -35.8602
lhand -10.6253 2.14929
lfingers 7.12502
lthumb 15.3814 31.5571
rfemur -71.9923 -5.22482 20.8908
rtibia 107.285
rfoot -33.2657 -17.9318
rtoes -13.8686
lfemur -72.749 10.9986 -18.188
ltibia 106.523
lfoot -31.464 16.9424
ltoes -14.5199
36
root -0.745834 11.5826 11.337 8.84207 1.63728 -1.91338
lowerback 18.6818 1.53514 -2.48137
upperback -3.62287 1.60552 1.03072
thorax -14.7981 1.01185 2.08502
lowerneck -8.43403 -3.37597 -5.83749
upperneck 6.66269 -4.31125 5.66355
head 3.61001 -2.01952 2.42564
rclavicle -1.58189e-014 -1.0635e-014
rhumerus 39.2278 -2.76216 -63.875
rradius 94.4884
rwrist 20.8658
rhand 1.06977 -14.0392
rfingers 7.12502
rthumb 26.6146 -42.1887
lclavicle -1.58189e-014 -1.0635e-014
lhumerus 41.5123 -4.77397 87.4983
lradius 87.9845
lwrist -35.8367
lhand -10.6371 2.2007
lfingers 7.12502
lthumb 15.37 31.6094
rfemur -72.0083 -5.21298 20.8932
rtibia 107.294
rfoot -33.2821 -17.9171
rtoes -13.7933
lfemur -72.7677 11.0286 -18.1927
ltibia 106.533
lfoot -31.4634 16.937
ltoes -14.5682
37
root -0.746122 11.5813 11.3367 8.84638 1.62656 -1.90899
lowerback 18.6849 1.54333 -2.50091
upperback -3.61752 1.61161 1.03016
thorax -14.7947 1.0162 2.0936
lowerneck -8.42223 -3.37399 -5.83494
upperneck 6.65118 -4.30903 5.66294
head 3.60439 -2.0186 2.42539
rclavicle 1.00945e-015 1.21756e-015
rhumerus 39.2385 -2.78286 -63.9022
rradius 94.4817
rwrist 20.8983
rhand 1.05475 -14.0634
rfingers 7.12502
rthumb 26.6002 -42.2151
lclavicle 1.00945e-015 1.21756e-015
lhumerus 41.535 -4.78035 87.4866
lradius 87.9784
lwrist -35.8154
lhand -10.6496 2.25308
lfingers 7.12502
lthumb 15.358 31.6627
rfemur -72.0257 -5.20411 20.8891
rtibia 107.307
rfoot -33.2961 -17.8987
rtoes -13.7338
lfemur -72.7841 11.0661 -18.2068
ltibia 106.543
lfoot -31.4637 16.9286
ltoes -14.6129
38
root -0.746612 11.58 11.3366 8.84933 1.61267 -1.90013
lowerback 18.6854 1.55397 -2.5275
upperback -3.61263 1.61906 1.0277
thorax -14.7905 1.02167 2.10366
lowerneck -8.39272 -3.37265 -5.84113
upperneck 6.63002 -4.30839 5.67616
head 3.59354 -2.01835 2.43098
rclavicle -2.85132e-015 -7.45443e-016
rhumerus 39.2439 -2.80132 -63.9271
rradius 94.4844
rwrist 20.9223
rhand 1.05361 -14.0808
rfingers 7.12502
rthumb 26.5992 -42.2326
lclavicle -2.85132e-015 -7.45443e-016
lhumerus 41.5523 -4.78737 87.4764
lradius 87.9658
lwrist -35.8101
lhand -10.678 2.28209
lfingers 7.12502
lthumb 15.3306 31.6938
rfemur -72.0429 -5.19931 20.8825
rtibia 107.323
rfoot -33.3075 -17.8773
rtoes -13.7032
lfemur -72.7973 11.1097 -18.2262
ltibia 106.553
lfoot -31.4634 16.9251
ltoes -14.6718
39
root -0.747195 11.5786 11.3368 8.85207 1.59956 -1.88566
lowerback 18.6843 1.56592 -2.55915
upperback -3.60948 1.62681 1.02313
thorax -14.7876 1.02762 2.11411
lowerneck -8.35185 -3.37412 -5.84864
upperneck 6.60589 -4.31189 5.68986
head 3.5802 -2.02034 2.43684
rclavicle -1.2657e-014 -2.07978e-014
rhumerus 39.2416 -2.81783 -63.9452
rradius 94.4911
rwrist 20.9434
rhand 1.05786 -14.0983
rfingers 7.12502
rthumb 26.6032 -42.2495
lclavicle -1.2657e-014 -2.07978e-014
lhumerus 41.5653 -4.79751 87.4682
lradius 87.9552
lwrist -35.8126
lhand -10.7001 2.30429
lfingers 7.12502
lthumb 15.3094 31.7176
rfemur -72.06 -5.2037 20.8722
rtibia 107.341
rfoot -33.3223 -17.8531
rtoes -13.6753
lfemur -72.8088 11.1511 -18.2507
ltibia 106.561
lfoot -31.4657 16.9177
ltoes -14.7105
40
root -0.747869 11.5772 11.3369 8.85804 1.58953 -1.86936
lowerback 18.68 1.57768 -2.59149
upperback -3.60835 1.63409 1.01772
thorax -14.7851 1.03341 2.12418
lowerneck -8.31328 -3.3775 -5.85545
upperneck 6.58814 -4.31794 5.70107
head 3.56925 -2.02364 2.44161
rclavicle -1.87665e-014 -4.12478e-015
rhumerus 39.2352 -2.83219 -63.955
rradius 94.5001
rwrist 20.9648
rhand 1.06874 -14.11
rfingers 7.12502
rthumb 26.6136 -42.2596
lclavicle -1.87665e-014 -4.12478e-015
lhumerus 41.5753 -4.80902 87.4634
lradius 87.9445
lwrist -35.8199
lhand -10.7092 2.31703
lfingers 7.12502
lthumb 15.3006 31.731
rfemur -72.0821 -5.21639 20.8622
rtibia 107.361
rfoot -33.3445 -17.8178
rtoes -13.6356
lfemur -72.8243 11.1882 -18.2759
ltibia 106.57
lfoot -31.4716 16.9046
ltoes -14.7371
41
root -0.748494 11.5757 11.3371 8.86732 1.58264 -1.85312
lowerback 18.673 1.58859 -2.6209
upperback -3.60793 1.64098 1.01201
thorax -14.7817 1.03874 2.1324
lowerneck -8.28048 -3.3825 -5.86158
upperneck 6.57445 -4.3257 5.70791
head 3.56047 -2.02787 2.44473
rclavicle 2.55935e-015 -1.1281e-014
rhumerus 39.2283 -2.84393 -63.9555
rradius 94.5155
rwrist 20.9816
rhand 1.08743 -14.1185
rfingers 7.12502
rthumb 26.6315 -42.2654
lclavicle 2.55935e-015 -1.1281e-014
lhumerus 41.5862 -4.82112 87.4619
lradius 87.9337
lwrist -35.8329
lhand -10.7126 2.31326
lfingers 7.12502
lthumb 15.2974 31.7275
rfemur -72.1086 -5.23736 20.8542
rtibia 107.382
rfoot -33.3637 -17.7845
rtoes -13.6026
lfemur -72.8443 11.2193 -18.3002
ltibia 106.58
lfoot -31.4788 16.8881
ltoes -14.7523
42
root -0.749099 11.5743 11.3373 8.87765 1.58049 -1.83714
lowerback 18.6654 1.59738 -2.64642
upperback -3.60792 1.64596 1.00627
thorax -14.7781 1.04287 2.13896
lowerneck -8.27497 -3.38807 -5.85943
upperneck 6.58289 -4.33355 5.70232
head 3.5624 -2.03202 2.44223
rclavicle 3.62161e-015 -2.5345e-015
rhumerus 39.222 -2.85313 -63.9501
rradius 94.5362
rwrist 20.9997
rhand 1.12509 -14.1144
rfingers 7.12502
rthumb 26.6676 -42.2558
lclavicle 3.62161e-015 -2.5345e-015
lhumerus 41.5962 -4.83232 87.4632
lradius 87.928
lwrist -35.837
lhand -10.6836 2.30867
lfingers 7.12502
lthumb 15.3253 31.7208
rfemur -72.1354 -5.26698 20.8482
rtibia 107.403
rfoot -33.3843 -17.7481
rtoes -13.5599
lfemur -72.865 11.2424 -18.3226
ltibia 106.589
lfoot -31.4871 16.8688
ltoes -14.77
43
root -0.749693 11.5729 11.3376 8.88928 1.58136 -1.82235
lowerback 18.6554 1.60498 -2.6685
upperback -3.60656 1.65041 1.00148
thorax -14.7713 1.04645 2.14486
lowerneck -8.27598 -3.3921 -5.85904
upperneck 6.58788 -4.33864 5.69671
head 3.56424 -2.03475 2.4401
rclavicle -7.19663e-015 -4.82053e-015
rhumerus 39.2181 -2.85984 -63.9362
rradius 94.5609
rwrist 21.0094
rhand 1.17216 -14.1021
rfingers 7.12502
rthumb 26.7126 -42.2367
lclavicle -7.19663e-015 -4.82053e-015
lhumerus 41.6073 -4.8415 87.4688
lradius 87.922
lwrist -35.8433
lhand -10.6568 2.28864
lfingers 7.12502
lthumb 15.3511 31.6988
rfemur -72.1637 -5.30173 20.8444
rtibia 107.422
rfoot -33.4016 -17.7125
rtoes -13.5262
lfemur -72.8863 11.26 -18.3427
ltibia 106.598
lfoot -31.4965 16.8471
ltoes -14.7945
